<?xml version="1.0" encoding="UTF-8" standalone="no"?>
<svg
   xmlns:dc="http://purl.org/dc/elements/1.1/"
   xmlns:cc="http://creativecommons.org/ns#"
   xmlns:rdf="http://www.w3.org/1999/02/22-rdf-syntax-ns#"
   xmlns:svg="http://www.w3.org/2000/svg"
   xmlns="http://www.w3.org/2000/svg"
   xmlns:sodipodi="http://sodipodi.sourceforge.net/DTD/sodipodi-0.dtd"
   xmlns:inkscape="http://www.inkscape.org/namespaces/inkscape"
   id="svg2637"
   sodipodi:docname="scared-monkey.svg"
   inkscape:export-filename="/home/aida/Documentos/LosGatosConBatas/imagenes/mono asustado.png"
   viewBox="0 0 360.00001 309.99999"
   inkscape:export-xdpi="374"
   version="1.1"
   inkscape:export-ydpi="374"
   inkscape:version="0.91 r13725"
   width="360"
   height="310">
  <defs
     id="defs4082" />
  <sodipodi:namedview
     id="namedview3640"
     fit-margin-left="10"
     inkscape:zoom="1.2685458"
     borderopacity="1"
     inkscape:current-layer="svg2637"
     inkscape:cx="229.97352"
     inkscape:cy="181.89212"
     inkscape:window-maximized="1"
     showgrid="false"
     fit-margin-right="10"
     bordercolor="#666666"
     inkscape:window-x="0"
     guidetolerance="10"
     objecttolerance="10"
     inkscape:window-y="24"
     fit-margin-bottom="10"
     inkscape:window-width="1366"
     inkscape:pageopacity="0"
     inkscape:pageshadow="2"
     pagecolor="#ffffff"
     gridtolerance="10"
     inkscape:window-height="720"
     fit-margin-top="10" />
  <metadata
     id="metadata4080">
    <rdf:RDF>
      <cc:Work>
        <dc:format>image/svg+xml</dc:format>
        <dc:type
           rdf:resource="http://purl.org/dc/dcmitype/StillImage" />
        <cc:license
           rdf:resource="http://creativecommons.org/publicdomain/zero/1.0/" />
        <dc:publisher>
          <cc:Agent
             rdf:about="http://openclipart.org/">
            <dc:title>Openclipart</dc:title>
          </cc:Agent>
        </dc:publisher>
        <dc:title></dc:title>
      </cc:Work>
      <cc:License
         rdf:about="http://creativecommons.org/publicdomain/zero/1.0/">
        <cc:permits
           rdf:resource="http://creativecommons.org/ns#Reproduction" />
        <cc:permits
           rdf:resource="http://creativecommons.org/ns#Distribution" />
        <cc:permits
           rdf:resource="http://creativecommons.org/ns#DerivativeWorks" />
      </cc:License>
    </rdf:RDF>
  </metadata>
  <g
     id="g4084"
     transform="translate(-9.4596507,-3.0849873)">
    <g
       transform="translate(9.9993,10)"
       id="g4514">
      <path
         d="M 139.72,220.17 C 93.054,175.97 62.902,226.92 32.28,209.5 6.445,189.33 25.778,158.83 40.362,146.12 68.033,122.01 31.764,131.78 28.901,132.59 c -8.613,2.42 -43.598,47.05 -17.232,81.69 36.677,48.18 69.314,-6.8 113.66,24.25 37.71,26.39 13.67,-17.33 14.39,-18.36 z"
         inkscape:connector-curvature="0"
         style="fill:#794522;stroke:#010101;stroke-width:4"
         id="path4516" />
      <path
         d="m 11.669,214.27 c 36.675,48.19 69.316,-6.78 113.67,24.27 23.79,16.66 22.98,5.39 19.34,-5.45 -0.74,4.85 -5.87,5.73 -21.19,-4.99 -44.347,-31.06 -76.988,23.91 -113.66,-24.27 -3.711,-4.87 -6.205,-9.94 -7.731,-15.06 0.539,8.6 3.343,17.32 9.57,25.5 z"
         inkscape:connector-curvature="0"
         style="fill:#010101;fill-opacity:0.3137"
         id="path4518" />
    </g>
    <g
       transform="translate(9.9993,10)"
       id="g4520">
      <path
         d="m 342,160.92 c 0.04,68.14 -55.16,123.42 -123.31,123.46 -68.14,0.05 -123.42,-55.15 -123.46,-123.3 -0.005,-0.05 -0.005,-0.11 -0.005,-0.16 -0.046,-68.149 55.155,-123.43 123.3,-123.47 68.15,-0.049 123.43,55.157 123.48,123.3 l 0,0.17 z"
         inkscape:connector-curvature="0"
         style="fill:#794522;stroke:#010101;stroke-width:4;stroke-linecap:round;stroke-linejoin:round"
         id="path4522" />
      <path
         d="m 326.78,102.3 c 3.2,10.97 4.91,22.58 4.91,34.59 0,68.11 -55.27,123.37 -123.38,123.37 -46.82,0 -87.6,-26.13 -108.5,-64.59 15.03,51.2 62.37,88.63 118.41,88.63 68.11,0 123.37,-55.27 123.37,-123.38 0,-21.21 -5.37,-41.19 -14.81,-58.62 z"
         inkscape:connector-curvature="0"
         style="fill:#010101;fill-opacity:0.3137"
         id="path4524" />
    </g>
    <path
       d="m 337.06,128.83 c -7.3,-23.227 45.13,151.52 -1.76,148.65 -36.6,-2.23 -64.65,-13.85 -70.45,-31.21 l 16.25,-16.13 c 0,0 37.23,11.15 31.43,-6.22 -5.8,-17.37 -12.24,-36.66 -8.65,-44.7"
       inkscape:connector-curvature="0"
       style="fill:#794522;stroke:#010101;stroke-width:4.64209986;stroke-linecap:round"
       id="path4526" />
    <path
       d="m 352.66,230.43 c 2.23,0.92 7.15,17.73 -3.94,42.53 -5.37,12 -66,-4.32 -78.85,-16.66 7.3,4.01 81.49,29.28 82.79,-25.87 z"
       inkscape:connector-curvature="0"
       style="fill:#010101;fill-opacity:0.3137"
       id="path4528" />
    <path
       d="m 121.44,120.7 c 7.3,-23.226 -45.134,151.52 1.76,148.65 36.6,-2.23 64.65,-13.85 70.45,-31.21 L 177.4,222.02 c 0,0 -37.23,11.14 -31.43,-6.23 5.8,-17.37 12.24,-36.66 8.65,-44.7"
       inkscape:connector-curvature="0"
       style="fill:#794522;stroke:#010101;stroke-width:4.64209986;stroke-linecap:round"
       id="path2593" />
    <g
       transform="translate(9.9993,10)"
       style="stroke:#010101;stroke-width:4;stroke-linecap:round;stroke-linejoin:round"
       id="g4531">
      <path
         d="m 147.31,27.978 c -14.97,0 -27.12,12.15 -27.12,27.117 0,9.685 5.09,18.175 12.73,22.971 -8.08,14.287 -12.73,30.774 -12.73,48.354 0,54.33 44.07,98.44 98.4,98.44 54.33,0 98.44,-44.11 98.44,-98.44 0,-17.58 -4.65,-34.067 -12.73,-48.354 7.62,-4.8 12.73,-13.299 12.73,-22.971 0,-14.967 -12.15,-27.117 -27.12,-27.117 -9.67,0 -18.13,5.104 -22.93,12.733 -14.29,-8.094 -30.8,-12.733 -48.39,-12.733 -17.59,0 -34.06,4.643 -48.35,12.733 -4.8,-7.629 -13.26,-12.733 -22.93,-12.733 z"
         inkscape:connector-curvature="0"
         style="fill:#794522"
         id="path4533" />
      <path
         d="m 290.24,39.481 c -5.44,0 -10.19,2.865 -12.9,7.147 8.32,5.602 15.48,12.755 21.08,21.075 4.26,-2.712 7.11,-7.503 7.11,-12.931 0,-8.438 -6.85,-15.291 -15.29,-15.291 z"
         inkscape:connector-curvature="0"
         style="fill:#a05b2c"
         id="path4535" />
      <path
         d="m 147.24,39.481 c 5.44,0 10.19,2.865 12.9,7.147 -8.32,5.602 -15.48,12.755 -21.08,21.075 -4.26,-2.712 -7.11,-7.503 -7.11,-12.931 0,-8.438 6.85,-15.291 15.29,-15.291 z"
         inkscape:connector-curvature="0"
         style="fill:#a05b2c"
         id="path4537" />
      <path
         d="M 242.86,41.785 C 253.19,35.759 249.71,6.172 244.8,4.04 240.39,19.907 235.98,26.201 228.3,31.178 230.48,21.35 228.92,7.836 221.62,2 c 0.74,8.4 -1.88,21.043 -10.68,29.662 -2.39,-9.097 -3.06,-19.628 -12.04,-23.207 2.21,10.73 -0.15,17.419 -2.79,24.631"
         inkscape:connector-curvature="0"
         style="fill:#794522"
         id="path4539" />
    </g>
    <path
       d="m 285,136.97 c 0.22,-2.91 0.34,-5.88 0.34,-8.89 l 0,-0.09 C 285.33,90.051 267.49,59.319 245.5,59.345 c -6.04,0.006 -11.76,2.345 -16.89,6.5 -5.14,-4.169 -10.88,-6.507 -16.94,-6.5 -21.99,0.025 -39.81,30.797 -39.79,68.735 l 0,0.09 c 0,2.98 0.12,5.92 0.34,8.8 -11.9,8.92 -19.12,20.67 -19.11,33.56 l 0,0.06 c 0.03,27.86 33.85,47.43 75.55,47.41 41.7,-0.02 75.48,-19.62 75.45,-47.47 l 0,-0.07 C 304.1,157.6 296.88,145.87 285,136.97 Z"
       inkscape:connector-curvature="0"
       style="fill:#a05b2c;stroke:#010101;stroke-width:4;stroke-linecap:round;stroke-linejoin:round"
       id="path4541" />
    <g
       transform="translate(9.9993,10)"
       style="fill:#010101"
       id="g4545">
      <path
         d="m 234.98,122.83 c -2.29,3.98 -6.5,5.84 -9.4,4.17 -2.89,-1.67 -3.38,-6.25 -1.09,-10.22 2.29,-3.98 6.5,-5.84 9.4,-4.17 2.9,1.67 3.38,6.25 1.09,10.22 z"
         inkscape:connector-curvature="0"
         id="path4547" />
      <path
         d="m 202.24,122.83 c 2.3,3.98 6.5,5.84 9.4,4.17 2.9,-1.67 3.38,-6.25 1.09,-10.22 -2.29,-3.98 -6.5,-5.84 -9.4,-4.17 -2.89,1.67 -3.38,6.25 -1.09,10.22 z"
         inkscape:connector-curvature="0"
         id="path4549" />
    </g>
    <path
       d="m 225.26,97.838 c 0.01,11.501 -9.31,20.832 -20.81,20.842 -11.5,0 -20.83,-9.314 -20.84,-20.814 l 0,-0.028 c -0.01,-11.501 9.31,-20.831 20.81,-20.839 11.5,-0.007 20.83,9.31 20.84,20.811 l 0,0.028 z"
       inkscape:connector-curvature="0"
       style="fill:#ffffff;stroke:#010101;stroke-width:4;stroke-linecap:round;stroke-linejoin:round"
       id="path4555" />
    <path
       inkscape:connector-curvature="0"
       inkscape:transform-center-y="-6.4670001"
       inkscape:transform-center-x="-9.4760593"
       d="m 204.3,105.81 c 0,3.569 -2.89,6.464 -6.46,6.467 -3.57,0.001 -6.46,-2.889 -6.46,-6.458 l 0,-0.009 c -0.01,-3.569 2.88,-6.465 6.45,-6.467 3.57,-0.003 6.47,2.889 6.47,6.458 l 0,0.009 z"
       style="fill:#010101"
       id="path4557" />
    <g
       transform="translate(9.9993,10)"
       id="g4559">
      <path
         d="m 263.61,87.838 c 0.01,11.501 -9.31,20.832 -20.81,20.842 -11.5,0 -20.83,-9.314 -20.84,-20.814 l 0,-0.028 c -0.01,-11.501 9.31,-20.831 20.81,-20.839 11.5,-0.007 20.83,9.31 20.84,20.811 l 0,0.028 z"
         inkscape:connector-curvature="0"
         style="fill:#ffffff;stroke:#010101;stroke-width:4;stroke-linecap:round;stroke-linejoin:round"
         id="path4561" />
      <path
         d="m 241.99,95.249 c 0,3.569 -2.89,6.464 -6.46,6.467 -3.57,0.001 -6.47,-2.889 -6.47,-6.458 l 0,-0.009 c 0,-3.569 2.89,-6.465 6.46,-6.467 3.57,-0.003 6.46,2.889 6.47,6.458 l 0,0.009 z"
         inkscape:connector-curvature="0"
         style="fill:#010101"
         id="path4563" />
    </g>
    <ellipse
       transform="matrix(0.6828,0,0,0.6828,58.652,46.976)"
       style="fill:#ff3a1a;stroke:#000000;stroke-width:5.11800003"
       id="path3882"
       cx="236.34407"
       cy="177.52103"
       rx="17.55858"
       ry="18.67341" />
    <g
       transform="matrix(0.8995,1.3815,-0.85994,0.49928,179.89,-337.88)"
       id="g4565">
      <path
         d="m 300.87,209.18 c 12.36,-3.44 23.36,5.03 29.44,16.89 6.96,13.57 1.59,30.23 -11.98,37.18 -13.57,6.96 -18.73,-4.3 -25.68,-17.87 -2.31,-4.52 -9.2,-17.37 -10.84,-20.58 -3.47,-6.76 -6.52,-12.12 0.24,-15.59 5.59,-2.87 14.72,-4.4 18.82,-0.03 z"
         inkscape:connector-curvature="0"
         style="fill:#a05b2c;stroke:#010101;stroke-width:4;stroke-linecap:round;stroke-linejoin:round"
         id="path4567" />
      <path
         d="m 298.51,253.47 c 8.26,-1.45 15.3,-8.24 15.3,-8.24"
         inkscape:connector-curvature="0"
         style="fill:#a05b2c;stroke:#010101;stroke-width:4;stroke-linecap:round"
         id="path4569" />
      <path
         d="m 291.67,244.05 c 10.12,-8.59 20.82,-10.18 20.82,-10.18"
         inkscape:connector-curvature="0"
         style="fill:#a05b2c;stroke:#010101;stroke-width:4;stroke-linecap:round"
         id="path4571" />
      <path
         d="m 287.78,233.54 c 5.88,-10.03 15.46,-8.93 15.46,-8.93"
         inkscape:connector-curvature="0"
         style="fill:#a05b2c;stroke:#010101;stroke-width:4;stroke-linecap:round"
         id="path4573" />
      <path
         d="m 282.2,222.64 c 4.81,-9.47 13.51,-7.92 13.51,-7.92"
         inkscape:connector-curvature="0"
         style="fill:#a05b2c;stroke:#010101;stroke-width:4;stroke-linecap:round"
         id="path4575" />
      <path
         d="m 333.16,235.12 c -0.74,5.14 -2.82,15.49 -5.84,20.62 -7.44,12.67 -14.53,11.19 -22.84,6.71 10.88,-0.01 22.22,-19.39 28.68,-27.33 z"
         inkscape:connector-curvature="0"
         style="fill:#010101;fill-opacity:0.3137"
         id="path4577" />
    </g>
    <g
       transform="translate(9.9993,10)"
       id="g4579">
      <g
         id="g4581">
        <path
           d="m 247.58,276 c 2.8,-13.64 16.41,-20.06 30.87,-20.06 16.53,0 29.95,13.42 29.95,29.95 0,16.53 -13.42,15.94 -29.95,15.94 -5.51,0 -21.31,0.29 -25.22,0.29 -8.24,0 -14.93,0.29 -14.93,-7.95 0,-6.81 3.04,-16.38 9.28,-18.17 z"
           inkscape:connector-curvature="0"
           style="fill:#a05b2c;stroke:#010101;stroke-width:4;stroke-linecap:round;stroke-linejoin:round"
           id="path4583" />
        <path
           d="m 301.91,266.75 c 2.54,4.4 7,13.52 7,18.96 0,13.43 -8.86,15.55 -21.05,15.88 12.11,-5.05 12.05,-25.59 14.05,-34.84 z"
           inkscape:connector-curvature="0"
           style="fill:#010101;fill-opacity:0.3137"
           id="path4585" />
        <path
           d="m 289.16,300.19 c 2.69,-8.7 -0.39,-18.84 -0.39,-18.84"
           inkscape:connector-curvature="0"
           style="fill:none;stroke:#010101;stroke-width:4;stroke-linecap:round"
           id="path4587" />
        <path
           d="M 276.69,301.12 C 273.39,287.11 277.16,276 277.16,276"
           inkscape:connector-curvature="0"
           style="fill:none;stroke:#010101;stroke-width:4;stroke-linecap:round"
           id="path4589" />
        <path
           d="m 264.62,300.67 c -6.77,-10.63 -0.97,-19.32 -0.97,-19.32"
           inkscape:connector-curvature="0"
           style="fill:none;stroke:#010101;stroke-width:4;stroke-linecap:round"
           id="path4591" />
        <path
           d="m 251.34,300.67 c -6.76,-9.33 -0.96,-16.96 -0.96,-16.96"
           inkscape:connector-curvature="0"
           style="fill:none;stroke:#010101;stroke-width:4;stroke-linecap:round"
           id="path4593" />
        <path
           d="m 248.08,277.72 c -2.49,2.93 -3.98,6.54 -3.98,10.44 0,5.64 3.08,10.65 7.86,13.9 -7.95,-0.26 -13.65,-1.67 -13.65,-9.32 0,-6.34 3.9,-11.91 9.77,-15.02 z"
           inkscape:connector-curvature="0"
           style="fill:#010101;fill-opacity:0.3137"
           id="path4595" />
      </g>
      <g
         id="g4597">
        <path
           d="m 189.13,276 c -2.81,-13.64 -16.41,-20.06 -30.87,-20.06 -16.53,0 -29.95,13.42 -29.95,29.95 0,16.53 13.42,15.94 29.95,15.94 5.5,0 21.31,0.29 25.22,0.29 8.24,0 14.92,0.29 14.92,-7.95 0,-6.81 -3.03,-16.38 -9.27,-18.17 z"
           inkscape:connector-curvature="0"
           style="fill:#a05b2c;stroke:#010101;stroke-width:4;stroke-linecap:round;stroke-linejoin:round"
           id="path4599" />
        <path
           d="m 147.55,300.19 c -2.69,-8.7 0.39,-18.84 0.39,-18.84"
           inkscape:connector-curvature="0"
           style="fill:none;stroke:#010101;stroke-width:4;stroke-linecap:round"
           id="path4601" />
        <path
           d="M 160.02,301.12 C 163.32,287.11 159.55,276 159.55,276"
           inkscape:connector-curvature="0"
           style="fill:none;stroke:#010101;stroke-width:4;stroke-linecap:round"
           id="path4603" />
        <path
           d="m 172.1,300.67 c 6.76,-10.63 0.96,-19.32 0.96,-19.32"
           inkscape:connector-curvature="0"
           style="fill:none;stroke:#010101;stroke-width:4;stroke-linecap:round"
           id="path4605" />
        <path
           d="m 185.37,300.67 c 6.76,-9.33 0.96,-16.96 0.96,-16.96"
           inkscape:connector-curvature="0"
           style="fill:none;stroke:#010101;stroke-width:4;stroke-linecap:round"
           id="path4607" />
        <path
           d="m 188.28,277.47 c 2.58,2.96 4.11,6.61 4.11,10.55 0,5.69 -3.19,10.76 -8.15,14.04 8.25,-0.26 14.16,-1.68 14.16,-9.42 0,-6.4 -4.04,-12.03 -10.12,-15.17 z"
           inkscape:connector-curvature="0"
           style="fill:#010101;fill-opacity:0.3137"
           id="path4609" />
      </g>
    </g>
    <g
       transform="matrix(-0.8995,1.3815,0.85994,0.49928,273.21,-338.57)"
       id="g2595">
      <path
         d="m 300.87,209.18 c 12.36,-3.44 23.36,5.03 29.44,16.89 6.96,13.57 1.59,30.23 -11.98,37.18 -13.57,6.96 -18.73,-4.3 -25.68,-17.87 -2.31,-4.52 -9.2,-17.37 -10.84,-20.58 -3.47,-6.76 -6.52,-12.12 0.24,-15.59 5.59,-2.87 14.72,-4.4 18.82,-0.03 z"
         inkscape:connector-curvature="0"
         style="fill:#a05b2c;stroke:#010101;stroke-width:4;stroke-linecap:round;stroke-linejoin:round"
         id="path2597" />
      <path
         d="m 298.51,253.47 c 8.26,-1.45 15.3,-8.24 15.3,-8.24"
         inkscape:connector-curvature="0"
         style="fill:#a05b2c;stroke:#010101;stroke-width:4;stroke-linecap:round"
         id="path2599" />
      <path
         d="m 291.67,244.05 c 10.12,-8.59 20.82,-10.18 20.82,-10.18"
         inkscape:connector-curvature="0"
         style="fill:#a05b2c;stroke:#010101;stroke-width:4;stroke-linecap:round"
         id="path2601" />
      <path
         d="m 287.78,233.54 c 5.88,-10.03 15.46,-8.93 15.46,-8.93"
         inkscape:connector-curvature="0"
         style="fill:#a05b2c;stroke:#010101;stroke-width:4;stroke-linecap:round"
         id="path2603" />
      <path
         d="m 282.2,222.64 c 4.81,-9.47 13.51,-7.92 13.51,-7.92"
         inkscape:connector-curvature="0"
         style="fill:#a05b2c;stroke:#010101;stroke-width:4;stroke-linecap:round"
         id="path2605" />
      <path
         d="m 333.16,235.12 c -0.74,5.14 -2.82,15.49 -5.84,20.62 -7.44,12.67 -14.53,11.19 -22.84,6.71 10.88,-0.01 22.22,-19.39 28.68,-27.33 z"
         inkscape:connector-curvature="0"
         style="fill:#010101;fill-opacity:0.3137"
         id="path2607" />
    </g>
    <path
       d="m 185.06,62.693 c 3.9019,-1.6722 29.543,-16.165 29.543,-16.165 l 0.55742,0"
       inkscape:connector-curvature="0"
       style="fill:none;stroke:#000000;stroke-width:5.11800003"
       id="path4666" />
    <path
       d="m 242.39,47.839 25.248,13.545"
       inkscape:connector-curvature="0"
       style="fill:none;stroke:#000000;stroke-width:5.11800003"
       id="path4668" />
  </g>
</svg>
